<svg xmlns="http://www.w3.org/2000/svg" width="24" height="24" viewBox="0 0 24 24">
    <path fill="#0084FF" fill-rule="evenodd" d="M14.386 1.213v2.378L7.458 5.623v18l13.426-4.27a2 2 0 0 0 1.378-2.156l-1.79-14.184a1 1 0 0 0-.631-.808.503.503 0 0 0-.074-.042L15.235.05a.498.498 0 0 0-.19-.047.505.505 0 0 0-.2.017L3.992 3.192a.75.75 0 0 0-.54.714l-.004.529-1.437 13.368a2 2 0 0 0 .686 1.73l4.76 4.09v-18l-3.015-1.37 9.944-3.04zm3.73 1.283l-2.73.801V1.223l2.73 1.273zM7.06 7c.156 0 .283.127.283.283v14.434a.283.283 0 0 1-.566 0V7.283c0-.156.127-.283.283-.283zm4.217 1.5a.5.5 0 1 1 1 0V16c0 .613.677 1 2 1 1.051 0 2-1.084 2-2V6.5a.5.5 0 0 1 1 0V15c0 1.441-1.364 3-3 3-1.802 0-3-.685-3-2V8.5z"/>
</svg>
