<svg xmlns="http://www.w3.org/2000/svg" width="22" height="22" viewBox="0 0 22 22">
    <g fill="none" fill-rule="evenodd">
        <path d="M1 1h20v20H1z"/>
        <path fill="#027FFF" fill-rule="nonzero" d="M11 18.438a7.438 7.438 0 1 0 0-14.876 7.438 7.438 0 0 0 0 14.876zm0 1.062a8.5 8.5 0 1 1 0-17 8.5 8.5 0 0 1 0 17zM7.812 9.937a1.062 1.062 0 1 0 0-2.124 1.062 1.062 0 0 0 0 2.125zm6.375 0a1.063 1.063 0 1 0 0-2.125 1.063 1.063 0 0 0 0 2.125zM11 16.232a3.27 3.27 0 0 0 3.27-3.27H7.73a3.27 3.27 0 0 0 3.27 3.27z"/>
    </g>
</svg>
