<svg t="1530604229553" class="icon" style="" viewBox="0 0 1024 1024" version="1.1" xmlns="http://www.w3.org/2000/svg" p-id="18678" xmlns:xlink="http://www.w3.org/1999/xlink" width="100" height="100"><defs><style type="text/css"></style></defs><path d="M736 448c53 0 96-43 96-96s-43-96-96-96-96 43-96 96 43 96 96 96z" fill="#D1D5DC" p-id="18679"></path><path d="M904 128H120c-31.2 0-56 25.4-56 56.6v654.8c0 31.2 24.8 56.6 56 56.6h784c31.2 0 56-25.4 56-56.6V184.6c0-31.2-24.8-56.6-56-56.6zM697.8 523.4c-6-7-15.2-12.4-25.6-12.4-10.2 0-17.4 4.8-25.6 11.4L609.2 554c-7.8 5.6-14 9.4-23 9.4-8.6 0-16.4-3.2-22-8.2-2-1.8-5.6-5.2-8.6-8.2L448 430.6c-8-9.2-20-15-33.4-15-13.4 0-25.8 6.6-33.6 15.6L128 736.4V215.4c2-13.6 12.6-23.4 26.2-23.4h715.4c13.8 0 25 10.2 25.8 24l0.6 520.8-198.2-213.4z" fill="#D1D5DC" p-id="18680"></path></svg>