<svg xmlns="http://www.w3.org/2000/svg" width="24" height="24" viewBox="0 0 24 24">
    <path fill="#0084FF" fill-rule="evenodd" d="M5.096 5.094c1.146.64 2.293.96 3.44.96l9.787-3.875a1.13 1.13 0 0 1 1.545 1.05v14.26c0 .926-.566 1.759-1.427 2.1l-9.906 3.92c-1.589-.097-2.838-.536-3.747-1.318a2.259 2.259 0 0 1-.786-1.713V4.532L4 4.368 14.598.025a.339.339 0 0 1 .467.313l.002.819h-.224L5.096 5.093zm2.59 1.578a.283.283 0 0 0-.284.284v15.433a.283.283 0 0 0 .567 0V6.956a.283.283 0 0 0-.284-.284zm7.082 7.334l1.751.271-.334-2.055 1.417-2.183-1.958.539-.876-1.62-.875 2.389-1.958 1.18 1.417.939-.335 2.35 1.751-1.81z"/>
</svg>
