<?xml version="1.0" encoding="UTF-8" standalone="no"?>
<svg width="87px" height="31px" viewBox="0 0 87 31" version="1.1" xmlns="http://www.w3.org/2000/svg" xmlns:xlink="http://www.w3.org/1999/xlink">
    <!-- Generator: Sketch 3.6.1 (26313) - http://www.bohemiancoding.com/sketch -->
    <title>Group 3</title>
    <desc>Created with Sketch.</desc>
    <defs>
        <path id="path-1" d="M9.76148261,31 C6.17914166,31 4.11942778,31 2.05971389,28.9786518 C0,26.9573037 0,24.9359555 0,21.4201689 L0,9.57965816 C0,6.06387157 0,4.04269633 2.05971389,2.02134816 C4.11942778,0 6.17914166,0 9.76148261,0 L21.8269056,0 C25.4094228,0 27.4689604,0 29.5286743,2.02134816 C31.5883882,4.04269633 31.5883882,6.06387157 31.5883882,9.57965816 L31.5883882,21.4201689 C31.5883882,24.9359555 31.5883882,26.9573037 29.5286743,28.9786518 C27.4689604,31 25.4094228,31 21.8269056,31 L9.76148261,31"></path>
    </defs>
    <g id="Page-1" stroke="none" stroke-width="1" fill="none" fill-rule="evenodd">
        <g id="Group-3">
            <path d="M79.9405223,28.3493899 L76.4402622,28.3493899 L76.4402622,14.9668173 L85.1379971,14.9668173 L85.1379971,13.7989916 L76.4402622,13.7989916 L76.4402622,8.56658234 L81.9450924,8.56658234 L81.9450924,7.39875667 L69.74482,7.39875667 L69.74482,8.56658234 L75.2511246,8.56658234 L75.2511246,13.7989916 L66.7893005,13.7989916 L66.7893005,14.9668173 L75.2511246,14.9668173 L75.2511246,28.3493899 L72.031485,28.3493899 L70.1974,17.6044525 L69.0244812,17.7970388 L70.8255782,28.3493899 L67.8324684,28.3493899 L67.8324684,29.5172156 L84.1397997,29.5172156 L84.1397997,28.3493899 L81.1464165,28.3493899 L82.9468284,17.7970388 L81.7739096,17.6044525 L79.9405223,28.3493899 Z M57.2879946,19.6161825 L61.4485758,19.6161825 L61.4485758,11.2451965 L60.2594381,11.2451965 L60.2594381,18.4483568 L57.2879946,18.4483568 L57.2879946,10.7213759 L56.0988569,10.7213759 L56.0988569,18.4483568 L53.1658964,18.4483568 L53.1658964,11.2451965 L51.9760215,11.2451965 L51.9760215,19.6161825 L56.0988569,19.6161825 L56.0988569,28.3497519 L53.1658964,28.3497519 L53.1658964,21.2566409 L51.9760215,21.2566409 L51.9760215,29.5175776 L61.4485758,29.5175776 L61.4485758,21.2566409 L60.2594381,21.2566409 L60.2594381,28.3497519 L57.2879946,28.3497519 L57.2879946,19.6161825 Z M43.6095201,17.6105528 L43.6095201,7.44509321 L41.5121998,7.44509321 L41.5121998,6.27726754 L43.6095201,6.27726754 L43.6095201,1.82389142 L44.799395,1.82389142 L44.799395,6.27726754 L47.2522034,6.27726754 L47.2522034,7.44509321 L44.799395,7.44509321 L44.799395,16.4395082 L46.6569711,14.6113291 L47.4981404,15.4359747 L44.799395,18.0923657 L44.799395,21.8282456 C44.799395,25.9898463 43.3020989,29.0603662 43.2394351,29.1885157 L42.9791961,29.7134219 L41.9109627,29.2037199 L42.1689901,28.6788138 C42.1837345,28.6491294 43.6095201,25.708931 43.6095201,21.8282456 L43.6095201,19.2635666 L41.9741425,20.8732784 L41.132236,20.0486327 L43.6095201,17.6105528 Z M48.5938722,29.6219796 L47.4283256,29.3895729 L47.5455437,28.8176062 C48.8113524,22.6794623 48.3940852,2.62153155 48.3896619,2.4202572 L48.3763919,1.82367421 L61.9243046,1.82367421 L61.9243046,8.83714431 L49.6510473,8.83714431 C49.6724267,15.3481525 49.5485735,24.9897734 48.7118275,29.0492889 L48.5938722,29.6219796 Z M49.6458867,7.66931864 L60.7351669,7.66931864 L60.7351669,2.99149988 L49.5905951,2.99149988 C49.6060768,3.84944993 49.6326167,5.53421765 49.6458867,7.66931864 Z M85.3124973,8.80731516 L78.9067829,2.99135508 L72.7841615,2.99135508 L66.3777099,8.80731516 L65.57119,7.94936512 L72.318975,1.82352941 L79.3712323,1.82352941 L86.1197544,7.94936512 L85.3124973,8.80731516 Z" id="Combined-Shape-Copy-3" stroke="#006CFF" stroke-width="0.567" fill="#006CFF"></path>
            <g id="Mask-Copy-+-Fill-1-Copy-Copy-Copy-Copy-Copy">
                <mask id="mask-2" fill="white">
                    <use xlink:href="#path-1"></use>
                </mask>
                <use id="Mask-Copy" fill="#006CFF" xlink:href="#path-1"></use>
                <path d="M17.7541885,8.62930235 L15.796276,7.11425781 L13.7506647,8.69719 L13.6446324,8.78102939 L15.796276,10.4646801 L17.9545347,8.78102939 L17.7541885,8.62930235 Z M25.1736165,14.5047371 L15.7906058,21.7655621 L6.41326526,14.5091887 L5.02822976,15.6009556 L15.7906058,23.9290635 L26.558841,15.596504 L25.1736165,14.5047371 Z M15.7906058,15.0938386 L10.6846104,11.1428147 L9.29938591,12.2345816 L15.7906058,17.2575255 L22.2873068,12.2301299 L20.9020823,11.138363 L15.7906058,15.0938386 Z" id="Fill-1-Copy" fill="#FFFFFF" mask="url(#mask-2)"></path>
            </g>
        </g>
    </g>
</svg>