<svg xmlns="http://www.w3.org/2000/svg" width="24" height="24" viewBox="0 0 24 24">
    <path fill="#7F8389" fill-rule="evenodd" d="M19.547 20.95l.049.163a11.754 11.754 0 0 1-15.432 0A12.023 12.023 0 0 1 0 12C0 5.383 5.33 0 11.88 0c6.55 0 11.88 5.383 11.88 12 0 3.643-1.618 6.91-4.164 9.113a8.455 8.455 0 0 0-.05-.164zm-.407-1.048c-1.293-2.737-4.057-4.63-7.26-4.63-3.203 0-5.967 1.893-7.26 4.63a10.581 10.581 0 0 0 7.26 2.886c2.802 0 5.353-1.097 7.26-2.886zm-3.3-10.084c0-2.209-1.773-4-3.96-4-2.187 0-3.96 1.791-3.96 4 0 2.21 1.773 4 3.96 4 2.187 0 3.96-1.79 3.96-4z"/>
</svg>
