<svg xmlns="http://www.w3.org/2000/svg" width="22" height="22" viewBox="0 0 22 22">
    <path fill="#027FFF" fill-rule="evenodd" d="M12.872 14.174h-3.97l-.859 3.446a.5.5 0 1 1-.97-.242l.799-3.204H5.5a.5.5 0 0 1-.5-.5v-.028a.5.5 0 0 1 .5-.5h2.628l1.026-4.113H6.5a.5.5 0 0 1-.5-.5v-.029a.5.5 0 0 1 .5-.5h2.91l.904-3.624a.5.5 0 1 1 .97.242l-.843 3.382h3.97l.903-3.624a.5.5 0 1 1 .97.242l-.843 3.382H17.5a.5.5 0 0 1 .5.5v.029a.5.5 0 0 1-.5.5h-2.316l-1.025 4.113H16.5a.5.5 0 0 1 .5.5v.028a.5.5 0 0 1-.5.5h-2.598l-.859 3.446a.5.5 0 1 1-.97-.242l.799-3.204zm.256-1.028l1.026-4.113h-3.97L9.16 13.146h3.97z"/>
</svg>
