<?xml version="1.0" encoding="UTF-8" standalone="no"?>
<svg width="76px" height="27px" viewBox="0 0 76 27" version="1.1" xmlns="http://www.w3.org/2000/svg" xmlns:xlink="http://www.w3.org/1999/xlink">
    <!-- Generator: Sketch 43.2 (39069) - http://www.bohemiancoding.com/sketch -->
    <title>Combined Shape Copy</title>
    <desc>Created with Sketch.</desc>
    <defs></defs>
    <g id="Page-1" stroke="none" stroke-width="1" fill="none" fill-rule="evenodd">
        <path d="M57.801774,0.133074527 L60.0765523,0.133074527 L60.0765523,4.68263102 L72.5878326,4.68263102 L72.5878326,6.95740927 L60.0765523,6.95740927 L60.0765523,24.0182461 L76,24.0182461 L76,26.2930244 L44.1531045,26.2930244 L44.1531045,24.0182461 L57.801774,24.0182461 L57.801774,6.95740927 L46.4278828,6.95740927 L46.4278828,4.68263102 L57.801774,4.68263102 L57.801774,0.133074527 Z M36.5579612,-2.13162821e-14 L37.4155526,1.85849383 L32.5509393,4.10142518 L39.6903308,7.3930293 L38.8327394,9.25152313 L38.4665001,9.08432693 L38.4665001,10.3695766 L31.641028,10.3695766 L31.641028,12.6443549 L38.4665001,12.6443549 L38.4665001,26.2930244 L36.1917219,26.2930244 L36.1917219,14.9191331 L31.641028,14.9191331 L31.641028,26.2930244 L29.3662498,26.2930244 L29.3662498,14.9191331 L23.6804415,14.9191331 L23.6804415,26.2930244 L21.4045259,26.2930244 L21.4045259,16.3340452 L14.5813286,26.0837448 L14.5813286,26.2930244 L12.3054129,26.2930244 L12.3054129,11.4603328 L1.86418077,26.3760538 L2.13162821e-14,25.0726058 L10.2922342,10.3695766 L7.75699382,10.3695766 L7.75699382,8.09479839 L12.3054129,8.09479839 L12.3054129,2.40785277 L7.75699382,2.40785277 L7.75699382,0.133074527 L17.9934959,0.133074527 L17.9934959,2.40785277 L14.5813286,2.40785277 L14.5813286,8.09479839 L17.9934959,8.09479839 L17.9934959,10.3695766 L14.5813286,10.3695766 L14.5813286,10.4344078 L18.3551857,16.7241697 L22.8035145,10.3695766 L21.4045259,10.3695766 L21.4045259,9.24014924 L21.378366,9.25152313 L20.521912,7.3930293 L27.6590287,4.10142518 L22.7955528,1.85849383 L23.6542816,-2.13162821e-14 L30.1055527,2.97427256 L36.5579612,-2.13162821e-14 Z M30.1055527,5.2285778 L23.8897211,8.09479839 L36.3225217,8.09479839 L30.1055527,5.2285778 Z M25.5798814,10.3695766 L23.9875366,12.6443549 L29.3662498,12.6443549 L29.3662498,10.3695766 L25.5798814,10.3695766 Z M14.5813286,14.8554393 L14.5813286,22.1165315 L16.9266249,18.7646458 L14.5813286,14.8554393 Z" id="Combined-Shape-Copy" fill="#4990E2"></path>
    </g>
</svg>